<mxfile host="65bd71144e">
    <diagram id="feM0tU8yY98sBB3vTVO0" name="Page-1">
        <mxGraphModel dx="826" dy="1852" grid="1" gridSize="10" guides="1" tooltips="1" connect="1" arrows="1" fold="1" page="1" pageScale="1" pageWidth="827" pageHeight="1169" math="0" shadow="0">
            <root>
                <mxCell id="0"/>
                <mxCell id="1" parent="0"/>
                <mxCell id="9" value="product:CSC1234" style="ellipse;whiteSpace=wrap;html=1;aspect=fixed;" vertex="1" parent="1">
                    <mxGeometry x="270" y="50" width="80" height="80" as="geometry"/>
                </mxCell>
                <mxCell id="29" value="product_type" style="edgeStyle=none;html=1;entryX=0.5;entryY=1;entryDx=0;entryDy=0;" edge="1" parent="1" source="12" target="9">
                    <mxGeometry relative="1" as="geometry"/>
                </mxCell>
                <mxCell id="12" value="account:1234" style="ellipse;whiteSpace=wrap;html=1;aspect=fixed;" vertex="1" parent="1">
                    <mxGeometry x="140" y="240" width="80" height="80" as="geometry"/>
                </mxCell>
                <mxCell id="19" value="owner" style="edgeStyle=none;html=1;entryX=0.323;entryY=0.945;entryDx=0;entryDy=0;entryPerimeter=0;" edge="1" parent="1" source="15" target="17">
                    <mxGeometry relative="1" as="geometry"/>
                </mxCell>
                <mxCell id="22" value="owner" style="edgeStyle=none;html=1;entryX=1;entryY=1;entryDx=0;entryDy=0;fillColor=#d80073;strokeColor=#A50040;" edge="1" parent="1" source="30" target="12">
                    <mxGeometry relative="1" as="geometry"/>
                </mxCell>
                <mxCell id="33" style="edgeStyle=none;html=1;" edge="1" parent="1" source="15" target="30">
                    <mxGeometry relative="1" as="geometry"/>
                </mxCell>
                <mxCell id="37" style="edgeStyle=none;html=1;dashed=1;" edge="1" parent="1" source="15" target="36">
                    <mxGeometry relative="1" as="geometry"/>
                </mxCell>
                <mxCell id="15" value="user:dave" style="ellipse;whiteSpace=wrap;html=1;aspect=fixed;" vertex="1" parent="1">
                    <mxGeometry x="440" y="500" width="80" height="80" as="geometry"/>
                </mxCell>
                <mxCell id="26" value="assignee" style="edgeStyle=none;html=1;" edge="1" parent="1" source="17" target="20">
                    <mxGeometry relative="1" as="geometry"/>
                </mxCell>
                <mxCell id="17" value="user_Role:er3rew.." style="ellipse;whiteSpace=wrap;html=1;aspect=fixed;" vertex="1" parent="1">
                    <mxGeometry x="670" y="290" width="80" height="80" as="geometry"/>
                </mxCell>
                <mxCell id="20" value="role:Director" style="ellipse;whiteSpace=wrap;html=1;aspect=fixed;" vertex="1" parent="1">
                    <mxGeometry x="730" y="150" width="80" height="80" as="geometry"/>
                </mxCell>
                <mxCell id="27" value="feature:close_Account" style="ellipse;whiteSpace=wrap;html=1;aspect=fixed;" vertex="1" parent="1">
                    <mxGeometry x="600" y="-20" width="80" height="80" as="geometry"/>
                </mxCell>
                <mxCell id="28" value="feature:initiate_payment" style="ellipse;whiteSpace=wrap;html=1;aspect=fixed;" vertex="1" parent="1">
                    <mxGeometry x="680" y="-110" width="80" height="80" as="geometry"/>
                </mxCell>
                <mxCell id="30" value="user:le123" style="ellipse;whiteSpace=wrap;html=1;aspect=fixed;" vertex="1" parent="1">
                    <mxGeometry x="320" y="340" width="80" height="80" as="geometry"/>
                </mxCell>
                <mxCell id="36" value="feature:read" style="ellipse;whiteSpace=wrap;html=1;aspect=fixed;" vertex="1" parent="1">
                    <mxGeometry x="520" y="170" width="80" height="80" as="geometry"/>
                </mxCell>
            </root>
        </mxGraphModel>
    </diagram>
    <diagram id="Ot2nGeFeFBc8toGebOC4" name="Page-2">
        <mxGraphModel dx="826" dy="683" grid="1" gridSize="10" guides="1" tooltips="1" connect="1" arrows="1" fold="1" page="1" pageScale="1" pageWidth="827" pageHeight="1169" math="0" shadow="0">
            <root>
                <mxCell id="0"/>
                <mxCell id="1" parent="0"/>
                <mxCell id="fv2VWwng5knfmrCJ2D6f-7" value="type_of_product" style="edgeStyle=none;html=1;dashed=1;" edge="1" parent="1" source="fv2VWwng5knfmrCJ2D6f-1" target="fv2VWwng5knfmrCJ2D6f-2">
                    <mxGeometry relative="1" as="geometry"/>
                </mxCell>
                <mxCell id="fv2VWwng5knfmrCJ2D6f-13" value="owner" style="edgeStyle=none;html=1;dashed=1;" edge="1" parent="1" source="fv2VWwng5knfmrCJ2D6f-1" target="fv2VWwng5knfmrCJ2D6f-9">
                    <mxGeometry relative="1" as="geometry"/>
                </mxCell>
                <mxCell id="fv2VWwng5knfmrCJ2D6f-1" value="account:123" style="ellipse;whiteSpace=wrap;html=1;aspect=fixed;" vertex="1" parent="1">
                    <mxGeometry x="270" y="220" width="80" height="80" as="geometry"/>
                </mxCell>
                <mxCell id="fv2VWwng5knfmrCJ2D6f-2" value="product:CSC123" style="ellipse;whiteSpace=wrap;html=1;aspect=fixed;" vertex="1" parent="1">
                    <mxGeometry x="330" y="420" width="80" height="80" as="geometry"/>
                </mxCell>
                <mxCell id="fv2VWwng5knfmrCJ2D6f-8" value="associated_product" style="edgeStyle=none;html=1;entryX=1;entryY=1;entryDx=0;entryDy=0;dashed=1;" edge="1" parent="1" source="fv2VWwng5knfmrCJ2D6f-3" target="fv2VWwng5knfmrCJ2D6f-2">
                    <mxGeometry relative="1" as="geometry"/>
                </mxCell>
                <mxCell id="fv2VWwng5knfmrCJ2D6f-3" value="feature:open_account" style="ellipse;whiteSpace=wrap;html=1;aspect=fixed;" vertex="1" parent="1">
                    <mxGeometry x="550" y="490" width="80" height="80" as="geometry"/>
                </mxCell>
                <mxCell id="fv2VWwng5knfmrCJ2D6f-9" value="user:alice" style="ellipse;whiteSpace=wrap;html=1;aspect=fixed;" vertex="1" parent="1">
                    <mxGeometry x="470" y="145" width="80" height="80" as="geometry"/>
                </mxCell>
                <mxCell id="fv2VWwng5knfmrCJ2D6f-11" value="associated_account" style="edgeStyle=none;html=1;dashed=1;" edge="1" parent="1" source="fv2VWwng5knfmrCJ2D6f-10" target="fv2VWwng5knfmrCJ2D6f-1">
                    <mxGeometry relative="1" as="geometry"/>
                </mxCell>
                <mxCell id="fv2VWwng5knfmrCJ2D6f-14" value="access" style="edgeStyle=none;html=1;dashed=1;" edge="1" parent="1" source="fv2VWwng5knfmrCJ2D6f-10" target="fv2VWwng5knfmrCJ2D6f-15">
                    <mxGeometry relative="1" as="geometry">
                        <mxPoint x="420" y="60" as="targetPoint"/>
                    </mxGeometry>
                </mxCell>
                <mxCell id="fv2VWwng5knfmrCJ2D6f-10" value="role:director" style="ellipse;whiteSpace=wrap;html=1;aspect=fixed;" vertex="1" parent="1">
                    <mxGeometry x="230" y="60" width="80" height="80" as="geometry"/>
                </mxCell>
                <mxCell id="fv2VWwng5knfmrCJ2D6f-15" value="user:bob" style="ellipse;whiteSpace=wrap;html=1;aspect=fixed;" vertex="1" parent="1">
                    <mxGeometry x="440" width="80" height="80" as="geometry"/>
                </mxCell>
            </root>
        </mxGraphModel>
    </diagram>
</mxfile>